<svg width="24" height="25" viewBox="0 0 24 25" fill="none" xmlns="http://www.w3.org/2000/svg">
<path fill-rule="evenodd" clip-rule="evenodd" d="M14 22.9199H10C6.229 22.9199 4.343 22.9199 3.172 21.7491C2 20.5792 2 18.6951 2 14.9277V10.9316C2 7.16433 2 5.28017 3.172 4.11031C4.343 2.93945 6.239 2.93945 10.03 2.93945C10.636 2.93945 11.121 2.93945 11.53 2.95644C11.517 3.03636 11.51 3.11728 11.51 3.2002L11.5 6.03143C11.5 7.12736 11.5 8.09642 11.605 8.87666C11.719 9.72283 11.98 10.569 12.672 11.2603C13.362 11.9497 14.21 12.2114 15.057 12.3253C15.838 12.4302 16.808 12.4302 17.905 12.4302H21.957C22 12.9637 22 13.619 22 14.4912V14.9277C22 18.6951 22 20.5792 20.828 21.7491C19.657 22.9199 17.771 22.9199 14 22.9199ZM5.25 15.4273C5.25 15.2285 5.32902 15.038 5.46967 14.8974C5.61032 14.7569 5.80109 14.678 6 14.678H14C14.1989 14.678 14.3897 14.7569 14.5303 14.8974C14.671 15.038 14.75 15.2285 14.75 15.4273C14.75 15.626 14.671 15.8166 14.5303 15.9571C14.3897 16.0976 14.1989 16.1765 14 16.1765H6C5.80109 16.1765 5.61032 16.0976 5.46967 15.9571C5.32902 15.8166 5.25 15.626 5.25 15.4273ZM5.25 18.9238C5.25 18.7251 5.32902 18.5345 5.46967 18.394C5.61032 18.2535 5.80109 18.1746 6 18.1746H11.5C11.6989 18.1746 11.8897 18.2535 12.0303 18.394C12.171 18.5345 12.25 18.7251 12.25 18.9238C12.25 19.1226 12.171 19.3131 12.0303 19.4537C11.8897 19.5942 11.6989 19.6731 11.5 19.6731H6C5.80109 19.6731 5.61032 19.5942 5.46967 19.4537C5.32902 19.3131 5.25 19.1226 5.25 18.9238Z" fill="#131313"/>
<path d="M19.352 8.55086L15.392 4.99133C14.265 3.97732 13.702 3.46982 13.009 3.20508L13 5.93641C13 8.29111 13 9.46896 13.732 10.2002C14.464 10.9315 15.643 10.9315 18 10.9315H21.58C21.218 10.2282 20.568 9.64479 19.352 8.55086Z" fill="#131313"/>
</svg>
